<svg width="215" height="30" viewBox="0 0 215 30" fill="none" xmlns="http://www.w3.org/2000/svg">
<path d="M14.4556 0.77417C6.47241 0.77417 0 7.31637 0 15.385C0 23.4537 6.47105 29.9973 14.4556 29.9973V30C22.4389 30 28.9113 23.4578 28.9113 15.3878C28.9113 7.31773 22.4389 0.77417 14.4556 0.77417ZM22.0977 18.3969C20.8928 19.6143 19.5878 20.305 18.2178 20.45C18.035 20.4692 17.8523 20.4787 17.6668 20.4787C16.47 20.4787 15.2395 20.0684 14.0008 19.2559C12.9556 18.5706 12.0053 18.2834 11.0915 18.3805C10.1953 18.4749 9.29909 18.9687 8.42726 19.8468C8.23638 20.0397 7.98322 20.145 7.71517 20.145H7.7084C7.4363 20.1436 7.18179 20.0342 6.99226 19.8359C6.60102 19.4296 6.60372 18.7744 7.00038 18.375C8.20524 17.1577 9.51028 16.467 10.8803 16.322C12.249 16.177 13.6677 16.5778 15.096 17.5161C16.1411 18.2013 17.0914 18.4886 18.0039 18.3915C18.9001 18.2971 19.7963 17.8033 20.6681 16.9252C20.8603 16.7309 21.1149 16.6202 21.387 16.627C21.6591 16.6284 21.9136 16.7378 22.1045 16.9361C22.4957 17.3424 22.493 17.9975 22.0963 18.3969H22.0977ZM22.0977 12.4484C20.8928 13.6657 19.5878 14.3564 18.2178 14.5014C18.035 14.5206 17.8523 14.5302 17.6668 14.5302C16.47 14.5302 15.2395 14.1198 14.0008 13.3073C12.9556 12.6221 12.0053 12.3348 11.0915 12.4319C10.1953 12.5263 9.29909 13.0201 8.42726 13.8982C8.23638 14.0911 7.98322 14.1964 7.71517 14.1964H7.7084C7.4363 14.195 7.18179 14.0856 6.99226 13.8873C6.60102 13.4811 6.60372 12.8259 7.00038 12.4265C8.20524 11.2091 9.51028 10.5184 10.8803 10.3734C12.249 10.227 13.6677 10.6292 15.096 11.5675C16.1411 12.2528 17.0914 12.5386 18.0039 12.4429C18.9001 12.3485 19.7963 11.8547 20.6681 10.9766C20.859 10.7837 21.1121 10.6784 21.3802 10.6784H21.387C21.6591 10.6798 21.9136 10.7892 22.1045 10.9875C22.4957 11.3938 22.493 12.049 22.0963 12.4484H22.0977Z" fill="#1B66FF"/>
<path d="M39.2366 24.5L33.1987 8.13156H37.6269L41.5502 20.026L40.2424 20.0602L44.3011 8.13156H47.4526L51.5424 20.0602L50.2347 20.026L54.1579 8.13156H58.5834L52.5483 24.4973H49.3628L45.3042 13.2129H46.5443L42.4207 24.4973H39.2352V24.5H39.2366Z" fill="#1B66FF"/>
<path d="M67.9434 24.8735C66.3107 24.8735 64.8419 24.4946 63.5328 23.7382C62.225 22.9818 61.1894 21.9546 60.4313 20.6538C59.6718 19.3558 59.2927 17.8922 59.2927 16.2659C59.2927 14.6396 59.6718 13.2239 60.4313 11.9464C61.1907 10.6688 62.225 9.65257 63.5328 8.89617C64.8405 8.13978 66.3093 7.76089 67.9434 7.76089C69.5774 7.76089 71.0787 8.1343 72.3878 8.87976C73.6956 9.62658 74.7353 10.6429 75.5056 11.93C76.2772 13.2171 76.663 14.6656 76.663 16.2673C76.663 17.869 76.284 19.3284 75.5218 20.6388C74.7623 21.9505 73.7226 22.9818 72.4041 23.7396C71.0855 24.496 69.5977 24.8748 67.9447 24.8748V24.8721L67.9434 24.8735ZM67.9434 20.7044C68.7705 20.7044 69.5029 20.5129 70.1405 20.1286C70.7782 19.7456 71.2696 19.2244 71.6148 18.5706C71.96 17.9168 72.1347 17.1591 72.1347 16.3001C72.1347 15.4411 71.9505 14.6847 71.581 14.0295C71.2114 13.3757 70.72 12.8601 70.1067 12.4867C69.4907 12.1132 68.7705 11.9272 67.9434 11.9272C67.1162 11.9272 66.4217 12.1132 65.7976 12.4867C65.1708 12.8601 64.6848 13.3744 64.3382 14.0295C63.9917 14.6833 63.8184 15.4411 63.8184 16.3001C63.8184 17.1591 63.993 17.9155 64.3382 18.5706C64.6835 19.2272 65.1708 19.7456 65.7976 20.1286C66.4244 20.5129 67.1392 20.7044 67.9434 20.7044Z" fill="#1B66FF"/>
<path d="M79.4478 24.5001V8.13159H83.8421V24.4973H79.4478V24.5001ZM83.8394 15.4863L82.1282 14.3017C82.3286 12.2924 82.9107 10.7044 83.8733 9.54043C84.8358 8.37643 86.2207 7.79648 88.0307 7.79648C88.8348 7.79648 89.5442 7.92779 90.1602 8.18493C90.7735 8.44482 91.338 8.86747 91.8524 9.45699L89.1015 12.6754C88.8551 12.3814 88.5587 12.1734 88.2121 12.0476C87.8655 11.9245 87.4689 11.8616 87.0208 11.8616C86.0826 11.8616 85.315 12.1557 84.7248 12.7411C84.1318 13.3292 83.8353 14.2443 83.8353 15.4863H83.8381H83.8394Z" fill="#1B66FF"/>
<path d="M93.3971 24.5001V0H97.7914V24.5001H93.3971ZM103.691 24.5001L97.4544 16.0635L103.659 8.13432H108.754L101.443 17.0811L101.609 14.9131L109.054 24.5028H103.686L103.691 24.5001Z" fill="#1B66FF"/>
<path d="M115.766 24.8735C114.827 24.8735 113.914 24.7559 113.032 24.5193C112.148 24.2826 111.339 23.9338 110.601 23.4688C109.863 23.0065 109.225 22.4566 108.689 21.8261L111.339 19.1493C111.875 19.8058 112.511 20.29 113.25 20.6073C113.988 20.9247 114.792 21.0833 115.665 21.0833C116.38 21.0833 116.928 20.9753 117.309 20.7605C117.688 20.5444 117.877 20.2476 117.877 19.8619C117.877 19.4105 117.677 19.0658 117.275 18.8292C116.872 18.5926 116.365 18.3819 115.749 18.2014C115.133 18.0195 114.479 17.828 113.788 17.6255C113.093 17.4231 112.441 17.1441 111.825 16.7953C111.209 16.4451 110.701 15.9541 110.299 15.3208C109.896 14.6875 109.697 13.875 109.697 12.8793C109.697 11.8835 109.954 10.9301 110.468 10.1519C110.984 9.37084 111.71 8.77448 112.648 8.35457C113.586 7.93739 114.695 7.72675 115.969 7.72675C117.31 7.72675 118.522 7.9579 119.606 8.42022C120.691 8.88254 121.591 9.58969 122.304 10.5376L119.655 13.2486C119.164 12.6604 118.61 12.2268 117.997 11.9423C117.381 11.6605 116.727 11.5197 116.035 11.5197C115.343 11.5197 114.863 11.6222 114.527 11.8247C114.192 12.0271 114.026 12.3103 114.026 12.67C114.026 13.0776 114.215 13.3867 114.596 13.6028C114.975 13.8176 115.48 14.0159 116.104 14.1964C116.731 14.3784 117.383 14.5753 118.064 14.7901C118.745 15.0048 119.396 15.3057 120.01 15.6887C120.623 16.0717 121.128 16.5819 121.518 17.2125C121.908 17.8457 122.105 18.6569 122.105 19.654C122.105 21.2598 121.535 22.5277 120.394 23.466C119.254 24.4044 117.711 24.8721 115.766 24.8721V24.8735Z" fill="#1B66FF"/>
<path d="M123.646 12.0312V8.13428H135.619V12.0312H123.646ZM127.438 24.5V1.32126H131.832V24.5H127.438Z" fill="#1B66FF"/>
<path d="M138.101 24.5001V8.13159H142.496V24.4973H138.101V24.5001ZM142.494 15.4863L140.783 14.3017C140.984 12.2924 141.566 10.7044 142.527 9.54043C143.489 8.37643 144.874 7.79648 146.686 7.79648C147.489 7.79648 148.199 7.92779 148.815 8.18493C149.43 8.44482 149.993 8.86747 150.509 9.45699L147.758 12.6754C147.51 12.3814 147.214 12.1734 146.868 12.0476C146.522 11.9245 146.124 11.8616 145.677 11.8616C144.739 11.8616 143.971 12.1557 143.381 12.7411C142.788 13.3292 142.492 14.2443 142.492 15.4863H142.494Z" fill="#1B66FF"/>
<path d="M159.364 24.8735C157.664 24.8735 156.15 24.5 154.819 23.7546C153.487 23.0078 152.443 21.9915 151.684 20.7044C150.924 19.4173 150.544 17.9483 150.544 16.2987C150.544 14.6491 150.919 13.2143 151.668 11.9272C152.416 10.6401 153.438 9.62246 154.737 8.87701C156.035 8.13019 157.488 7.75815 159.097 7.75815C160.619 7.75815 161.982 8.10694 163.187 8.80862C164.393 9.5103 165.333 10.4801 166.003 11.722C166.674 12.9654 167.01 14.3756 167.01 15.9581C167.01 16.2522 166.999 16.5517 166.976 16.8568C166.952 17.1618 166.899 17.4955 166.81 17.8553L153.161 17.8895V14.5684L164.764 14.5342L162.954 15.9239C162.931 14.9514 162.765 14.1403 162.449 13.4824C162.135 12.8286 161.701 12.3321 161.141 11.9929C160.584 11.6536 159.888 11.4854 159.062 11.4854C158.192 11.4854 157.429 11.6769 156.781 12.0613C156.131 12.4442 155.634 12.9941 155.289 13.7054C154.942 14.418 154.769 15.2578 154.769 16.2303C154.769 17.2028 154.955 18.0878 155.323 18.8237C155.692 19.5595 156.222 20.1162 156.918 20.5006C157.609 20.8836 158.415 21.0764 159.333 21.0764C160.16 21.0764 160.909 20.9397 161.579 20.6688C162.25 20.398 162.83 19.9699 163.324 19.3817L165.941 22.0243C165.113 22.9722 164.14 23.6848 163.023 24.1581C161.905 24.6341 160.685 24.8707 159.367 24.8707V24.8762L159.364 24.8735Z" fill="#1B66FF"/>
<path d="M176.5 24.8393C175.026 24.8393 173.7 24.4659 172.527 23.7204C171.353 22.9736 170.431 21.9573 169.76 20.6702C169.088 19.3831 168.752 17.9373 168.752 16.3329C168.752 14.7285 169.088 13.2485 169.76 11.9614C170.431 10.6743 171.353 9.65667 172.527 8.91122C173.699 8.1644 175.035 7.79236 176.534 7.79236C177.672 7.79236 178.703 8.02899 179.62 8.50498C180.538 8.98098 181.275 9.63479 181.833 10.4705C182.392 11.3062 182.694 12.2678 182.738 13.3497V19.2792C182.694 20.3406 182.398 21.2939 181.849 22.1433C181.3 22.99 180.561 23.652 179.635 24.1239C178.708 24.5999 177.662 24.8365 176.5 24.8365V24.842V24.8393ZM177.339 20.7386C178.57 20.7386 179.564 20.3214 180.324 19.4857C181.084 18.65 181.464 17.5995 181.464 16.3329C181.464 15.4739 181.286 14.7066 180.928 14.0282C180.569 13.3497 180.09 12.8245 179.485 12.4511C178.883 12.0777 178.168 11.8917 177.339 11.8917C176.511 11.8917 175.823 12.0832 175.21 12.4675C174.593 12.8505 174.115 13.3716 173.767 14.0254C173.42 14.6792 173.247 15.437 173.247 16.296C173.247 17.155 173.421 17.9456 173.767 18.6007C174.113 19.2573 174.599 19.7757 175.226 20.1587C175.853 20.5416 176.558 20.7345 177.339 20.7345V20.74V20.7386ZM181.196 24.5001V20.0944L181.934 16.0949L181.196 12.1297V8.13021H185.622V24.496H181.196V24.4987V24.5001Z" fill="#1B66FF"/>
<path d="M189.445 24.5001V8.13162H193.839V24.4974H189.445V24.5001ZM199.975 24.5001V14.8421C199.975 13.8942 199.683 13.1528 199.104 12.6221C198.522 12.0914 197.796 11.8261 196.926 11.8261C196.342 11.8261 195.824 11.9437 195.365 12.1803C194.907 12.4169 194.538 12.7616 194.256 13.213C193.976 13.6644 193.838 14.2197 193.838 14.8735L192.127 13.994C192.127 12.7302 192.4 11.6346 192.947 10.7072C193.495 9.77982 194.24 9.0631 195.178 8.55564C196.116 8.04819 197.178 7.79378 198.364 7.79378C199.482 7.79378 200.5 8.04819 201.416 8.55564C202.331 9.0631 203.06 9.77435 203.596 10.6921C204.132 11.6086 204.401 12.6973 204.401 13.9639V24.5028H199.973L199.975 24.5001ZM210.541 24.5001V14.8421C210.541 13.8942 210.25 13.1528 209.669 12.6221C209.085 12.0914 208.371 11.8261 207.523 11.8261C206.919 11.8261 206.386 11.9437 205.928 12.1803C205.471 12.4169 205.101 12.7616 204.821 13.213C204.539 13.6644 204.403 14.2197 204.403 14.8735L201.887 14.2293C201.955 12.897 202.296 11.7549 202.909 10.8057C203.524 9.85779 204.324 9.11644 205.308 8.58573C206.29 8.05503 207.388 7.78967 208.595 7.78967C209.803 7.78967 210.886 8.04408 211.848 8.55154C212.811 9.05899 213.575 9.7894 214.144 10.7373C214.714 11.6852 215 12.8259 215 14.1609V24.4974H210.541V24.5001Z" fill="#1B66FF"/>
</svg>
